<svg id="mmd" width="100%" xmlns="http://www.w3.org/2000/svg" style="max-width: 1210.44140625px;" viewBox="-7.5 -8 1210.44140625 452" role="graphics-document document" aria-roledescription="flowchart-v2"><style>#mmd{font-family:"trebuchet ms",verdana,arial,sans-serif;font-size:16px;fill:#333;}#mmd .error-icon{fill:#552222;}#mmd .error-text{fill:#552222;stroke:#552222;}#mmd .edge-thickness-normal{stroke-width:2px;}#mmd .edge-thickness-thick{stroke-width:3.5px;}#mmd .edge-pattern-solid{stroke-dasharray:0;}#mmd .edge-pattern-dashed{stroke-dasharray:3;}#mmd .edge-pattern-dotted{stroke-dasharray:2;}#mmd .marker{fill:#333333;stroke:#333333;}#mmd .marker.cross{stroke:#333333;}#mmd svg{font-family:"trebuchet ms",verdana,arial,sans-serif;font-size:16px;}#mmd .label{font-family:"trebuchet ms",verdana,arial,sans-serif;color:#333;}#mmd .cluster-label text{fill:#333;}#mmd .cluster-label span,#mmd p{color:#333;}#mmd .label text,#mmd span,#mmd p{fill:#333;color:#333;}#mmd .node rect,#mmd .node circle,#mmd .node ellipse,#mmd .node polygon,#mmd .node path{fill:#ECECFF;stroke:#9370DB;stroke-width:1px;}#mmd .flowchart-label text{text-anchor:middle;}#mmd .node .katex path{fill:#000;stroke:#000;stroke-width:1px;}#mmd .node .label{text-align:center;}#mmd .node.clickable{cursor:pointer;}#mmd .arrowheadPath{fill:#333333;}#mmd .edgePath .path{stroke:#333333;stroke-width:2.0px;}#mmd .flowchart-link{stroke:#333333;fill:none;}#mmd .edgeLabel{background-color:#e8e8e8;text-align:center;}#mmd .edgeLabel rect{opacity:0.5;background-color:#e8e8e8;fill:#e8e8e8;}#mmd .labelBkg{background-color:rgba(232, 232, 232, 0.5);}#mmd .cluster rect{fill:#ffffde;stroke:#aaaa33;stroke-width:1px;}#mmd .cluster text{fill:#333;}#mmd .cluster span,#mmd p{color:#333;}#mmd div.mermaidTooltip{position:absolute;text-align:center;max-width:200px;padding:2px;font-family:"trebuchet ms",verdana,arial,sans-serif;font-size:12px;background:hsl(80, 100%, 96.2745098039%);border:1px solid #aaaa33;border-radius:2px;pointer-events:none;z-index:100;}#mmd .flowchartTitleText{text-anchor:middle;font-size:18px;fill:#333;}#mmd :root{--mermaid-font-family:"trebuchet ms",verdana,arial,sans-serif;}</style><g><marker id="mmd_flowchart-pointEnd" class="marker flowchart" viewBox="0 0 10 10" refX="6" refY="5" markerUnits="userSpaceOnUse" markerWidth="12" markerHeight="12" orient="auto"><path d="M 0 0 L 10 5 L 0 10 z" class="arrowMarkerPath" style="stroke-width: 1; stroke-dasharray: 1, 0;"></path></marker><marker id="mmd_flowchart-pointStart" class="marker flowchart" viewBox="0 0 10 10" refX="4.5" refY="5" markerUnits="userSpaceOnUse" markerWidth="12" markerHeight="12" orient="auto"><path d="M 0 5 L 10 10 L 10 0 z" class="arrowMarkerPath" style="stroke-width: 1; stroke-dasharray: 1, 0;"></path></marker><marker id="mmd_flowchart-circleEnd" class="marker flowchart" viewBox="0 0 10 10" refX="11" refY="5" markerUnits="userSpaceOnUse" markerWidth="11" markerHeight="11" orient="auto"><circle cx="5" cy="5" r="5" class="arrowMarkerPath" style="stroke-width: 1; stroke-dasharray: 1, 0;"></circle></marker><marker id="mmd_flowchart-circleStart" class="marker flowchart" viewBox="0 0 10 10" refX="-1" refY="5" markerUnits="userSpaceOnUse" markerWidth="11" markerHeight="11" orient="auto"><circle cx="5" cy="5" r="5" class="arrowMarkerPath" style="stroke-width: 1; stroke-dasharray: 1, 0;"></circle></marker><marker id="mmd_flowchart-crossEnd" class="marker cross flowchart" viewBox="0 0 11 11" refX="12" refY="5.2" markerUnits="userSpaceOnUse" markerWidth="11" markerHeight="11" orient="auto"><path d="M 1,1 l 9,9 M 10,1 l -9,9" class="arrowMarkerPath" style="stroke-width: 2; stroke-dasharray: 1, 0;"></path></marker><marker id="mmd_flowchart-crossStart" class="marker cross flowchart" viewBox="0 0 11 11" refX="-1" refY="5.2" markerUnits="userSpaceOnUse" markerWidth="11" markerHeight="11" orient="auto"><path d="M 1,1 l 9,9 M 10,1 l -9,9" class="arrowMarkerPath" style="stroke-width: 2; stroke-dasharray: 1, 0;"></path></marker><g class="root"><g class="clusters"></g><g class="edgePaths"></g><g class="edgeLabels"></g><g class="nodes"><g class="root" transform="translate(-7.5, -8)"><g class="clusters"><g class="cluster default flowchart-label" id="Backend"><rect style="" rx="0" ry="0" x="8" y="8" width="1194.44140625" height="436"></rect><g class="cluster-label" transform="translate(547.423828125, 8)"><foreignObject width="115.59375" height="19"><div xmlns="http://www.w3.org/1999/xhtml" style="display: inline-block; white-space: nowrap;"><span class="nodeLabel">Django REST API</span></div></foreignObject></g></g><g class="cluster default flowchart-label" id="Accounts"><rect style="" rx="0" ry="0" x="28" y="117" width="352.62890625" height="193"></rect><g class="cluster-label" transform="translate(172.744140625, 117)"><foreignObject width="63.140625" height="19"><div xmlns="http://www.w3.org/1999/xhtml" style="display: inline-block; white-space: nowrap;"><span class="nodeLabel">accounts</span></div></foreignObject></g></g><g class="cluster default flowchart-label" id="Tickets"><rect style="" rx="0" ry="0" x="631.80078125" y="226" width="550.640625" height="193"></rect><g class="cluster-label" transform="translate(882.89453125, 226)"><foreignObject width="48.453125" height="19"><div xmlns="http://www.w3.org/1999/xhtml" style="display: inline-block; white-space: nowrap;"><span class="nodeLabel">tickets</span></div></foreignObject></g></g><g class="cluster default flowchart-label" id="Dashboard"><rect style="" rx="0" ry="0" x="400.62890625" y="117" width="211.171875" height="193"></rect><g class="cluster-label" transform="translate(469.42578125, 117)"><foreignObject width="73.578125" height="19"><div xmlns="http://www.w3.org/1999/xhtml" style="display: inline-block; white-space: nowrap;"><span class="nodeLabel">dashboard</span></div></foreignObject></g></g></g><g class="edgePaths"><path d="M379.713,67L348.707,71.167C317.702,75.333,255.691,83.667,224.685,92C193.68,100.333,193.68,108.667,193.68,116.117C193.68,123.567,193.68,130.133,193.68,133.417L193.68,136.7" id="L-Core-AV-0" class=" edge-thickness-normal edge-pattern-solid flowchart-link LS-Core LE-AV" style="fill:none;" marker-end="url(#mmd_flowchart-pointEnd)"></path><path d="M650.855,63.331L702.699,68.109C754.543,72.887,858.23,82.444,910.074,91.388C961.918,100.333,961.918,108.667,961.918,119.833C961.918,131,961.918,145,961.918,159C961.918,173,961.918,187,961.918,198.167C961.918,209.333,961.918,217.667,961.918,225.117C961.918,232.567,961.918,239.133,961.918,242.417L961.918,245.7" id="L-Core-TV-0" class=" edge-thickness-normal edge-pattern-solid flowchart-link LS-Core LE-TV" style="fill:none;" marker-end="url(#mmd_flowchart-pointEnd)"></path><path d="M506.215,67L506.215,71.167C506.215,75.333,506.215,83.667,506.215,92C506.215,100.333,506.215,108.667,506.215,116.117C506.215,123.567,506.215,130.133,506.215,133.417L506.215,136.7" id="L-Core-DV-0" class=" edge-thickness-normal edge-pattern-solid flowchart-link LS-Core LE-DV" style="fill:none;" marker-end="url(#mmd_flowchart-pointEnd)"></path><path d="M168.003,176L161.709,180.167C155.416,184.333,142.829,192.667,136.536,201C130.242,209.333,130.242,217.667,130.242,225.117C130.242,232.567,130.242,239.133,130.242,242.417L130.242,245.7" id="L-AV-US-0" class=" edge-thickness-normal edge-pattern-solid flowchart-link LS-AV LE-US" style="fill:none;" marker-end="url(#mmd_flowchart-pointEnd)"></path><path d="M228.012,176L236.426,180.167C244.841,184.333,261.671,192.667,270.085,201C278.5,209.333,278.5,217.667,278.5,225.117C278.5,232.567,278.5,239.133,278.5,242.417L278.5,245.7" id="L-AV-AP-0" class=" edge-thickness-normal edge-pattern-solid flowchart-link LS-AV LE-AP" style="fill:none;" marker-end="url(#mmd_flowchart-pointEnd)"></path><path d="M894.852,285L878.415,289.167C861.977,293.333,829.102,301.667,812.664,310C796.227,318.333,796.227,326.667,789.658,334.564C783.089,342.461,769.951,349.922,763.382,353.652L756.813,357.383" id="L-TV-TS-0" class=" edge-thickness-normal edge-pattern-solid flowchart-link LS-TV LE-TS" style="fill:none;" marker-end="url(#mmd_flowchart-pointEnd)"></path><path d="M957.992,285L957.03,289.167C956.068,293.333,954.143,301.667,953.181,310C952.219,318.333,952.219,326.667,946.796,334.505C941.373,342.343,930.527,349.686,925.105,353.357L919.682,357.029" id="L-TV-MS-0" class=" edge-thickness-normal edge-pattern-solid flowchart-link LS-TV LE-MS" style="fill:none;" marker-end="url(#mmd_flowchart-pointEnd)"></path><path d="M1007.703,285L1018.925,289.167C1030.147,293.333,1052.591,301.667,1063.813,310C1075.035,318.333,1075.035,326.667,1075.035,334.117C1075.035,341.567,1075.035,348.133,1075.035,351.417L1075.035,354.7" id="L-TV-TP-0" class=" edge-thickness-normal edge-pattern-solid flowchart-link LS-TV LE-TP" style="fill:none;" marker-end="url(#mmd_flowchart-pointEnd)"></path><path d="M506.215,176L506.215,180.167C506.215,184.333,506.215,192.667,506.215,201C506.215,209.333,506.215,217.667,506.215,225.117C506.215,232.567,506.215,239.133,506.215,242.417L506.215,245.7" id="L-DV-DS-0" class=" edge-thickness-normal edge-pattern-solid flowchart-link LS-DV LE-DS" style="fill:none;" marker-end="url(#mmd_flowchart-pointEnd)"></path><path d="M492.941,285L489.688,289.167C486.435,293.333,479.928,301.667,512.277,310C544.626,318.333,615.831,326.667,654.361,334.323C692.891,341.98,698.746,348.96,701.674,352.45L704.602,355.94" id="L-DS-TS-0" class=" edge-thickness-normal edge-pattern-solid flowchart-link LS-DS LE-TS" style="fill:none;" marker-end="url(#mmd_flowchart-pointEnd)"></path><path d="M523.536,285L527.781,289.167C532.026,293.333,540.517,301.667,589.299,310C638.081,318.333,727.154,326.667,778.259,334.564C829.364,342.461,842.502,349.922,849.071,353.652L855.64,357.383" id="L-DS-MS-0" class=" edge-thickness-normal edge-pattern-solid flowchart-link LS-DS LE-MS" style="fill:none;" marker-end="url(#mmd_flowchart-pointEnd)"></path></g><g class="edgeLabels"><g class="edgeLabel"><g class="label" transform="translate(0, 0)"><foreignObject width="0" height="0"><div xmlns="http://www.w3.org/1999/xhtml" style="display: inline-block; white-space: nowrap;"><span class="edgeLabel"></span></div></foreignObject></g></g><g class="edgeLabel"><g class="label" transform="translate(0, 0)"><foreignObject width="0" height="0"><div xmlns="http://www.w3.org/1999/xhtml" style="display: inline-block; white-space: nowrap;"><span class="edgeLabel"></span></div></foreignObject></g></g><g class="edgeLabel"><g class="label" transform="translate(0, 0)"><foreignObject width="0" height="0"><div xmlns="http://www.w3.org/1999/xhtml" style="display: inline-block; white-space: nowrap;"><span class="edgeLabel"></span></div></foreignObject></g></g><g class="edgeLabel"><g class="label" transform="translate(0, 0)"><foreignObject width="0" height="0"><div xmlns="http://www.w3.org/1999/xhtml" style="display: inline-block; white-space: nowrap;"><span class="edgeLabel"></span></div></foreignObject></g></g><g class="edgeLabel"><g class="label" transform="translate(0, 0)"><foreignObject width="0" height="0"><div xmlns="http://www.w3.org/1999/xhtml" style="display: inline-block; white-space: nowrap;"><span class="edgeLabel"></span></div></foreignObject></g></g><g class="edgeLabel"><g class="label" transform="translate(0, 0)"><foreignObject width="0" height="0"><div xmlns="http://www.w3.org/1999/xhtml" style="display: inline-block; white-space: nowrap;"><span class="edgeLabel"></span></div></foreignObject></g></g><g class="edgeLabel"><g class="label" transform="translate(0, 0)"><foreignObject width="0" height="0"><div xmlns="http://www.w3.org/1999/xhtml" style="display: inline-block; white-space: nowrap;"><span class="edgeLabel"></span></div></foreignObject></g></g><g class="edgeLabel"><g class="label" transform="translate(0, 0)"><foreignObject width="0" height="0"><div xmlns="http://www.w3.org/1999/xhtml" style="display: inline-block; white-space: nowrap;"><span class="edgeLabel"></span></div></foreignObject></g></g><g class="edgeLabel"><g class="label" transform="translate(0, 0)"><foreignObject width="0" height="0"><div xmlns="http://www.w3.org/1999/xhtml" style="display: inline-block; white-space: nowrap;"><span class="edgeLabel"></span></div></foreignObject></g></g><g class="edgeLabel"><g class="label" transform="translate(0, 0)"><foreignObject width="0" height="0"><div xmlns="http://www.w3.org/1999/xhtml" style="display: inline-block; white-space: nowrap;"><span class="edgeLabel"></span></div></foreignObject></g></g><g class="edgeLabel"><g class="label" transform="translate(0, 0)"><foreignObject width="0" height="0"><div xmlns="http://www.w3.org/1999/xhtml" style="display: inline-block; white-space: nowrap;"><span class="edgeLabel"></span></div></foreignObject></g></g></g><g class="nodes"><g class="node default default flowchart-label" id="flowchart-AV-0" data-node="true" data-id="AV" transform="translate(193.6796875, 159)"><rect class="basic label-container" style="" rx="0" ry="0" x="-85.2421875" y="-17" width="170.484375" height="34"></rect><g class="label" style="" transform="translate(-77.7421875, -9.5)"><rect></rect><foreignObject width="155.484375" height="19"><div xmlns="http://www.w3.org/1999/xhtml" style="display: inline-block; white-space: nowrap;"><span class="nodeLabel">views + session_views</span></div></foreignObject></g></g><g class="node default default flowchart-label" id="flowchart-Core-9" data-node="true" data-id="Core" transform="translate(506.21484375, 50)"><rect class="basic label-container" style="" rx="0" ry="0" x="-144.640625" y="-17" width="289.28125" height="34"></rect><g class="label" style="" transform="translate(-137.140625, -9.5)"><rect></rect><foreignObject width="274.28125" height="19"><div xmlns="http://www.w3.org/1999/xhtml" style="display: inline-block; white-space: nowrap;"><span class="nodeLabel">ticketProject urls/settings/exceptions</span></div></foreignObject></g></g><g class="node default default flowchart-label" id="flowchart-TV-3" data-node="true" data-id="TV" transform="translate(961.91796875, 268)"><rect class="basic label-container" style="" rx="0" ry="0" x="-133.1875" y="-17" width="266.375" height="34"></rect><g class="label" style="" transform="translate(-125.6875, -9.5)"><rect></rect><foreignObject width="251.375" height="19"><div xmlns="http://www.w3.org/1999/xhtml" style="display: inline-block; white-space: nowrap;"><span class="nodeLabel">Ticket/Category/Message ViewSets</span></div></foreignObject></g></g><g class="node default default flowchart-label" id="flowchart-DV-7" data-node="true" data-id="DV" transform="translate(506.21484375, 159)"><rect class="basic label-container" style="" rx="0" ry="0" x="-66.90625" y="-17" width="133.8125" height="34"></rect><g class="label" style="" transform="translate(-59.40625, -9.5)"><rect></rect><foreignObject width="118.8125" height="19"><div xmlns="http://www.w3.org/1999/xhtml" style="display: inline-block; white-space: nowrap;"><span class="nodeLabel">Dashboard views</span></div></foreignObject></g></g><g class="node default default flowchart-label" id="flowchart-US-1" data-node="true" data-id="US" transform="translate(130.2421875, 268)"><rect class="basic label-container" style="" rx="0" ry="0" x="-49.2421875" y="-17" width="98.484375" height="34"></rect><g class="label" style="" transform="translate(-41.7421875, -9.5)"><rect></rect><foreignObject width="83.484375" height="19"><div xmlns="http://www.w3.org/1999/xhtml" style="display: inline-block; white-space: nowrap;"><span class="nodeLabel">UserService</span></div></foreignObject></g></g><g class="node default default flowchart-label" id="flowchart-AP-2" data-node="true" data-id="AP" transform="translate(278.5, 268)"><rect class="basic label-container" style="" rx="0" ry="0" x="-49.015625" y="-17" width="98.03125" height="34"></rect><g class="label" style="" transform="translate(-41.515625, -9.5)"><rect></rect><foreignObject width="83.03125" height="19"><div xmlns="http://www.w3.org/1999/xhtml" style="display: inline-block; white-space: nowrap;"><span class="nodeLabel">permissions</span></div></foreignObject></g></g><g class="node default default flowchart-label" id="flowchart-TS-4" data-node="true" data-id="TS" transform="translate(722.26953125, 377)"><rect class="basic label-container" style="" rx="0" ry="0" x="-55.46875" y="-17" width="110.9375" height="34"></rect><g class="label" style="" transform="translate(-47.96875, -9.5)"><rect></rect><foreignObject width="95.9375" height="19"><div xmlns="http://www.w3.org/1999/xhtml" style="display: inline-block; white-space: nowrap;"><span class="nodeLabel">TicketService</span></div></foreignObject></g></g><g class="node default default flowchart-label" id="flowchart-MS-5" data-node="true" data-id="MS" transform="translate(890.18359375, 377)"><rect class="basic label-container" style="" rx="0" ry="0" x="-62.4453125" y="-17" width="124.890625" height="34"></rect><g class="label" style="" transform="translate(-54.9453125, -9.5)"><rect></rect><foreignObject width="109.890625" height="19"><div xmlns="http://www.w3.org/1999/xhtml" style="display: inline-block; white-space: nowrap;"><span class="nodeLabel">MessageService</span></div></foreignObject></g></g><g class="node default default flowchart-label" id="flowchart-TP-6" data-node="true" data-id="TP" transform="translate(1075.03515625, 377)"><rect class="basic label-container" style="" rx="0" ry="0" x="-72.40625" y="-17" width="144.8125" height="34"></rect><g class="label" style="" transform="translate(-64.90625, -9.5)"><rect></rect><foreignObject width="129.8125" height="19"><div xmlns="http://www.w3.org/1999/xhtml" style="display: inline-block; white-space: nowrap;"><span class="nodeLabel">ticket permissions</span></div></foreignObject></g></g><g class="node default default flowchart-label" id="flowchart-DS-8" data-node="true" data-id="DS" transform="translate(506.21484375, 268)"><rect class="basic label-container" style="" rx="0" ry="0" x="-70.5859375" y="-17" width="141.171875" height="34"></rect><g class="label" style="" transform="translate(-63.0859375, -9.5)"><rect></rect><foreignObject width="126.171875" height="19"><div xmlns="http://www.w3.org/1999/xhtml" style="display: inline-block; white-space: nowrap;"><span class="nodeLabel">DashboardService</span></div></foreignObject></g></g></g></g></g></g></g></svg>